{"glyphs":{" ":{"ha":694,"x_min":0,"x_max":0,"o":""}," ":{"ha":694,"x_min":0,"x_max":0,"o":""},"A":{"ha":972,"x_min":40,"x_max":944,"o":"m 40 347 q 78 515 40 447 q 180 622 117 582 q 324 678 243 661 q 489 694 404 694 q 693 667 607 694 q 835 584 779 640 q 918 440 892 528 q 944 229 944 351 q 936 146 944 188 q 908 72 928 104 q 855 20 888 40 q 775 0 822 0 q 758 10 763 0 q 750 35 753 21 q 683 17 714 24 q 622 6 653 10 q 560 1 592 3 q 489 0 528 0 q 324 17 404 0 q 180 73 243 33 q 78 179 117 113 q 40 347 40 246 m 226 357 q 239 294 226 324 q 273 241 251 264 q 324 204 294 218 q 388 190 354 190 l 599 190 q 658 204 629 190 q 708 240 686 218 q 744 292 731 263 q 758 351 758 321 q 731 433 758 401 q 663 483 704 465 q 576 506 622 500 q 493 513 531 513 q 409 508 456 513 q 322 487 363 503 q 253 440 281 471 q 226 357 226 408 z "},"a":{"ha":972,"x_min":40,"x_max":944,"o":"m 40 347 q 78 515 40 447 q 180 622 117 582 q 324 678 243 661 q 489 694 404 694 q 693 667 607 694 q 835 584 779 640 q 918 440 892 528 q 944 229 944 351 q 936 146 944 188 q 908 72 928 104 q 855 20 888 40 q 775 0 822 0 q 758 10 763 0 q 750 35 753 21 q 683 17 714 24 q 622 6 653 10 q 560 1 592 3 q 489 0 528 0 q 324 17 404 0 q 180 73 243 33 q 78 179 117 113 q 40 347 40 246 m 226 357 q 239 294 226 324 q 273 241 251 264 q 324 204 294 218 q 388 190 354 190 l 599 190 q 658 204 629 190 q 708 240 686 218 q 744 292 731 263 q 758 351 758 321 q 731 433 758 401 q 663 483 704 465 q 576 506 622 500 q 493 513 531 513 q 409 508 456 513 q 322 487 363 503 q 253 440 281 471 q 226 357 226 408 z "},"B":{"ha":972,"x_min":40,"x_max":944,"o":"m 944 476 q 938 444 944 460 q 925 413 932 428 q 912 382 918 397 q 906 351 906 367 q 912 321 906 336 q 925 289 918 306 q 938 254 932 272 q 944 218 944 236 q 928 139 944 176 q 881 73 911 101 q 811 27 851 44 q 724 8 771 10 l 242 0 q 176 9 211 0 q 110 36 140 18 q 60 81 81 54 q 40 143 40 107 l 40 561 q 51 604 40 581 q 79 648 61 628 q 119 681 97 668 q 165 694 142 694 l 743 694 q 825 674 788 694 q 889 622 863 654 q 930 551 915 590 q 944 476 944 513 m 251 161 l 665 161 q 696 163 676 161 q 734 171 715 165 q 767 187 753 176 q 781 214 781 197 q 774 228 781 221 q 759 243 768 236 q 740 254 750 250 q 724 258 731 258 l 251 258 l 251 161 m 251 428 l 704 428 q 726 431 713 428 q 751 440 739 435 q 772 454 764 446 q 781 472 781 463 q 772 495 781 485 q 750 512 763 506 q 722 522 738 518 q 694 525 707 525 l 251 525 l 251 428 z "},"b":{"ha":972,"x_min":40,"x_max":944,"o":"m 944 476 q 938 444 944 460 q 925 413 932 428 q 912 382 918 397 q 906 351 906 367 q 912 321 906 336 q 925 289 918 306 q 938 254 932 272 q 944 218 944 236 q 928 139 944 176 q 881 73 911 101 q 811 27 851 44 q 724 8 771 10 l 242 0 q 176 9 211 0 q 110 36 140 18 q 60 81 81 54 q 40 143 40 107 l 40 561 q 51 604 40 581 q 79 648 61 628 q 119 681 97 668 q 165 694 142 694 l 743 694 q 825 674 788 694 q 889 622 863 654 q 930 551 915 590 q 944 476 944 513 m 251 161 l 665 161 q 696 163 676 161 q 734 171 715 165 q 767 187 753 176 q 781 214 781 197 q 774 228 781 221 q 759 243 768 236 q 740 254 750 250 q 724 258 731 258 l 251 258 l 251 161 m 251 428 l 704 428 q 726 431 713 428 q 751 440 739 435 q 772 454 764 446 q 781 472 781 463 q 772 495 781 485 q 750 512 763 506 q 722 522 738 518 q 694 525 707 525 l 251 525 l 251 428 z "},"D":{"ha":972,"x_min":40,"x_max":944,"o":"m 944 347 q 916 213 944 276 q 839 103 888 150 q 725 28 790 56 q 586 0 660 0 l 229 0 q 167 9 200 0 q 106 36 135 18 q 59 81 78 54 q 40 143 40 107 l 40 551 q 54 603 40 578 q 90 649 68 629 q 138 682 111 669 q 193 694 165 694 l 614 694 q 744 665 683 694 q 849 586 804 635 q 919 475 893 538 q 944 347 944 413 m 238 204 l 542 204 q 608 214 574 204 q 672 242 643 224 q 719 289 700 261 q 738 351 738 317 q 723 406 738 381 q 685 449 708 431 q 633 479 661 468 q 578 490 604 490 l 238 490 l 238 204 z "},"d":{"ha":972,"x_min":40,"x_max":944,"o":"m 944 347 q 916 213 944 276 q 839 103 888 150 q 725 28 790 56 q 586 0 660 0 l 229 0 q 167 9 200 0 q 106 36 135 18 q 59 81 78 54 q 40 143 40 107 l 40 551 q 54 603 40 578 q 90 649 68 629 q 138 682 111 669 q 193 694 165 694 l 614 694 q 744 665 683 694 q 849 586 804 635 q 919 475 893 538 q 944 347 944 413 m 238 204 l 542 204 q 608 214 574 204 q 672 242 643 224 q 719 289 700 261 q 738 351 738 317 q 723 406 738 381 q 685 449 708 431 q 633 479 661 468 q 578 490 604 490 l 238 490 l 238 204 z "},"C":{"ha":972,"x_min":43,"x_max":944,"o":"m 43 347 q 68 475 43 413 q 138 586 93 538 q 242 665 182 635 q 372 694 301 694 l 944 694 q 931 616 944 653 q 894 552 918 579 q 834 510 869 525 q 754 494 799 494 l 407 494 q 354 482 382 494 q 302 450 326 469 q 262 404 278 431 q 246 351 246 378 q 265 290 246 318 q 313 242 283 263 q 376 211 342 222 q 442 200 411 200 l 944 200 q 894 55 944 110 q 754 0 844 0 l 399 0 q 260 28 325 0 q 147 103 194 56 q 71 213 99 150 q 43 347 43 276 z "},"c":{"ha":972,"x_min":43,"x_max":944,"o":"m 43 347 q 68 475 43 413 q 138 586 93 538 q 242 665 182 635 q 372 694 301 694 l 944 694 q 931 616 944 653 q 894 552 918 579 q 834 510 869 525 q 754 494 799 494 l 407 494 q 354 482 382 494 q 302 450 326 469 q 262 404 278 431 q 246 351 246 378 q 265 290 246 318 q 313 242 283 263 q 376 211 342 222 q 442 200 411 200 l 944 200 q 894 55 944 110 q 754 0 844 0 l 399 0 q 260 28 325 0 q 147 103 194 56 q 71 213 99 150 q 43 347 43 276 z "},"E":{"ha":972,"x_min":40,"x_max":944,"o":"m 40 325 q 55 454 40 394 q 103 560 69 514 q 190 639 136 607 q 321 686 243 671 q 469 692 403 689 q 610 694 535 694 q 725 685 665 694 q 833 651 785 675 q 913 584 882 626 q 944 475 944 542 q 919 384 944 424 q 855 317 894 344 q 765 276 815 290 q 664 263 715 263 l 231 263 q 275 189 240 219 q 357 158 310 158 l 918 158 q 901 96 918 125 q 856 45 883 67 q 794 12 828 24 q 728 0 760 0 l 321 0 q 197 29 250 0 q 110 105 144 58 q 58 209 75 151 q 40 325 40 267 m 519 540 q 444 540 492 540 q 350 528 397 539 q 269 493 303 518 q 235 419 235 468 l 682 419 q 710 422 692 419 q 746 429 728 424 q 777 444 764 435 q 790 471 790 454 q 772 503 790 490 q 724 523 753 515 q 661 535 694 531 q 597 540 628 539 q 545 540 567 540 q 519 540 524 540 z "},"e":{"ha":972,"x_min":40,"x_max":944,"o":"m 40 325 q 55 454 40 394 q 103 560 69 514 q 190 639 136 607 q 321 686 243 671 q 469 692 403 689 q 610 694 535 694 q 725 685 665 694 q 833 651 785 675 q 913 584 882 626 q 944 475 944 542 q 919 384 944 424 q 855 317 894 344 q 765 276 815 290 q 664 263 715 263 l 231 263 q 275 189 240 219 q 357 158 310 158 l 918 158 q 901 96 918 125 q 856 45 883 67 q 794 12 828 24 q 728 0 760 0 l 321 0 q 197 29 250 0 q 110 105 144 58 q 58 209 75 151 q 40 325 40 267 m 519 540 q 444 540 492 540 q 350 528 397 539 q 269 493 303 518 q 235 419 235 468 l 682 419 q 710 422 692 419 q 746 429 728 424 q 777 444 764 435 q 790 471 790 454 q 772 503 790 490 q 724 523 753 515 q 661 535 694 531 q 597 540 628 539 q 545 540 567 540 q 519 540 524 540 z "},"F":{"ha":972,"x_min":40,"x_max":944,"o":"m 642 686 q 715 685 681 686 q 785 683 750 685 q 858 680 819 682 q 944 676 896 678 l 944 664 q 933 613 944 640 q 901 563 921 586 q 856 525 882 540 q 800 510 829 510 l 406 510 q 348 502 376 510 q 297 480 319 494 q 261 444 275 465 q 247 393 247 422 l 767 393 q 760 349 767 374 q 742 301 754 324 q 710 261 729 278 q 667 243 692 244 l 238 225 l 238 0 q 164 12 200 0 q 101 44 128 24 q 57 95 74 65 q 40 163 40 125 l 40 406 q 71 526 40 478 q 151 606 101 575 q 265 654 201 638 q 396 678 329 671 q 526 685 463 685 q 642 686 590 686 z "},"f":{"ha":958,"x_min":31,"x_max":935,"o":"m 632 686 q 706 685 671 686 q 775 683 740 685 q 848 680 810 682 q 935 676 886 678 l 935 664 q 923 613 935 640 q 892 563 911 586 q 846 525 872 540 q 790 510 819 510 l 396 510 q 338 502 367 510 q 288 480 310 494 q 251 444 265 465 q 238 393 238 422 l 757 393 q 751 349 757 374 q 732 301 744 324 q 701 261 719 278 q 657 243 682 244 l 228 225 l 228 0 q 154 12 190 0 q 91 44 118 24 q 47 95 64 65 q 31 163 31 125 l 31 406 q 61 526 31 478 q 142 606 92 575 q 256 654 192 638 q 386 678 319 671 q 517 685 453 685 q 632 686 581 686 z "},"R":{"ha":736,"x_min":18,"x_max":711,"o":"m 18 503 q 78 638 18 590 q 246 694 139 685 l 263 694 l 263 644 l 278 644 q 343 660 313 653 q 403 674 374 668 q 466 684 433 681 q 538 688 499 688 q 581 688 563 688 q 615 687 599 688 q 649 684 632 686 q 689 678 667 682 q 694 676 692 678 q 701 674 697 675 q 711 669 706 671 l 657 511 l 646 503 q 594 502 629 503 q 517 498 560 501 q 430 487 475 494 q 347 466 385 479 q 286 433 310 453 q 263 385 263 413 l 263 135 q 240 79 263 104 q 183 37 217 54 q 111 10 150 19 q 40 0 72 0 l 28 0 q 27 58 28 19 q 25 146 26 97 q 23 248 24 194 q 21 350 22 301 q 19 437 19 399 q 18 494 18 475 l 18 503 l 18 503 z "},"r":{"ha":736,"x_min":18,"x_max":711,"o":"m 18 503 q 78 638 18 590 q 246 694 139 685 l 263 694 l 263 644 l 278 644 q 343 660 313 653 q 403 674 374 668 q 466 684 433 681 q 538 688 499 688 q 581 688 563 688 q 615 687 599 688 q 649 684 632 686 q 689 678 667 682 q 694 676 692 678 q 701 674 697 675 q 711 669 706 671 l 657 511 l 646 503 q 594 502 629 503 q 517 498 560 501 q 430 487 475 494 q 347 466 385 479 q 286 433 310 453 q 263 385 263 413 l 263 135 q 240 79 263 104 q 183 37 217 54 q 111 10 150 19 q 40 0 72 0 l 28 0 q 27 58 28 19 q 25 146 26 97 q 23 248 24 194 q 21 350 22 301 q 19 437 19 399 q 18 494 18 475 l 18 503 l 18 503 z "},"G":{"ha":972,"x_min":40,"x_max":944,"o":"m 40 347 q 63 475 40 413 q 126 586 86 538 q 221 665 167 635 q 339 694 275 694 l 860 694 q 848 616 860 653 q 814 552 836 579 q 760 510 792 525 q 686 494 728 494 l 371 494 q 323 482 349 494 q 276 450 297 469 q 240 404 254 431 q 225 351 225 378 q 242 289 225 317 q 285 242 260 261 q 342 214 311 224 q 403 204 374 204 l 735 204 q 739 211 736 207 q 742 217 740 214 q 743 222 743 219 l 743 226 l 743 231 q 631 235 690 232 q 522 256 572 238 q 440 316 472 275 q 407 436 407 357 l 944 436 l 944 186 q 937 144 944 168 q 919 94 929 119 q 895 47 908 69 q 872 8 882 24 q 781 3 822 6 q 699 1 739 1 q 617 0 658 0 q 525 0 575 0 l 363 0 q 237 36 296 10 q 134 106 178 63 q 65 209 90 149 q 40 347 40 269 z "},"g":{"ha":972,"x_min":40,"x_max":944,"o":"m 40 347 q 63 475 40 413 q 126 586 86 538 q 221 665 167 635 q 339 694 275 694 l 860 694 q 848 616 860 653 q 814 552 836 579 q 760 510 792 525 q 686 494 728 494 l 371 494 q 323 482 349 494 q 276 450 297 469 q 240 404 254 431 q 225 351 225 378 q 242 289 225 317 q 285 242 260 261 q 342 214 311 224 q 403 204 374 204 l 735 204 q 739 211 736 207 q 742 217 740 214 q 743 222 743 219 l 743 226 l 743 231 q 631 235 690 232 q 522 256 572 238 q 440 316 472 275 q 407 436 407 357 l 944 436 l 944 186 q 937 144 944 168 q 919 94 929 119 q 895 47 908 69 q 872 8 882 24 q 781 3 822 6 q 699 1 739 1 q 617 0 658 0 q 525 0 575 0 l 363 0 q 237 36 296 10 q 134 106 178 63 q 65 209 90 149 q 40 347 40 269 z "},"H":{"ha":972,"x_min":0,"x_max":944,"o":"m 0 694 q 101 674 61 694 q 165 621 140 654 q 203 542 190 588 q 222 447 215 497 l 738 447 l 738 694 l 944 694 l 944 165 q 926 94 944 124 q 877 44 907 64 q 810 15 847 25 q 738 6 774 6 l 738 238 l 217 238 l 217 8 q 207 1 217 1 q 193 0 197 0 q 122 14 157 0 q 60 51 88 28 q 17 106 33 75 q 0 174 0 138 l 0 694 l 0 694 z "},"h":{"ha":972,"x_min":0,"x_max":944,"o":"m 0 694 q 101 674 61 694 q 165 621 140 654 q 203 542 190 588 q 222 447 215 497 l 738 447 l 738 694 l 944 694 l 944 165 q 926 94 944 124 q 877 44 907 64 q 810 15 847 25 q 738 6 774 6 l 738 238 l 217 238 l 217 8 q 207 1 217 1 q 193 0 197 0 q 122 14 157 0 q 60 51 88 28 q 17 106 33 75 q 0 174 0 138 l 0 694 l 0 694 z "},"I":{"ha":222,"x_min":13,"x_max":207,"o":"m 25 565 q 92 663 40 631 q 207 694 144 694 q 207 577 207 649 q 206 426 207 506 q 201 269 204 347 q 194 129 199 190 q 127 32 179 64 q 13 0 75 0 q 13 122 13 50 q 14 272 13 193 q 18 427 15 350 q 25 565 21 504 z "},"i":{"ha":222,"x_min":13,"x_max":207,"o":"m 25 565 q 92 663 40 631 q 207 694 144 694 q 207 577 207 649 q 206 426 207 506 q 201 269 204 347 q 194 129 199 190 q 127 32 179 64 q 13 0 75 0 q 13 122 13 50 q 14 272 13 193 q 18 427 15 350 q 25 565 21 504 z "},"J":{"ha":583,"x_min":26,"x_max":553,"o":"m 553 183 q 529 117 553 150 q 469 59 506 85 q 392 17 433 33 q 313 0 350 0 l 26 0 q 49 65 26 39 q 107 110 72 92 q 183 140 142 128 q 258 164 224 153 q 316 188 293 175 q 339 221 339 201 l 339 499 q 357 568 339 533 q 405 631 375 603 q 473 678 435 660 q 553 696 511 696 l 553 183 z "},"j":{"ha":583,"x_min":26,"x_max":553,"o":"m 553 183 q 529 117 553 150 q 469 59 506 85 q 392 17 433 33 q 313 0 350 0 l 26 0 q 49 65 26 39 q 107 110 72 92 q 183 140 142 128 q 258 164 224 153 q 316 188 293 175 q 339 221 339 201 l 339 499 q 357 568 339 533 q 405 631 375 603 q 473 678 435 660 q 553 696 511 696 l 553 183 z "},"O":{"ha":972,"x_min":0,"x_max":944,"o":"m 0 347 q 40 515 0 447 q 147 622 81 582 q 299 678 214 661 q 472 694 383 694 q 649 677 564 694 q 800 619 735 660 q 905 510 865 578 q 944 342 944 443 l 944 260 q 874 127 922 178 q 762 49 826 76 q 622 10 697 21 q 472 0 547 0 q 299 17 383 0 q 147 73 214 33 q 40 179 81 113 q 0 347 0 246 m 196 356 q 209 294 196 324 q 245 241 222 264 q 299 204 268 218 q 365 190 331 190 l 589 190 q 650 204 619 190 q 705 240 681 218 q 744 292 729 263 q 758 351 758 321 q 729 433 758 401 q 658 483 700 465 q 566 506 615 500 q 476 513 517 513 q 388 508 436 513 q 297 487 339 503 q 225 440 254 471 q 196 356 196 408 z "},"o":{"ha":972,"x_min":0,"x_max":944,"o":"m 0 347 q 40 515 0 447 q 147 622 81 582 q 299 678 214 661 q 472 694 383 694 q 649 677 564 694 q 800 619 735 660 q 905 510 865 578 q 944 342 944 443 l 944 260 q 874 127 922 178 q 762 49 826 76 q 622 10 697 21 q 472 0 547 0 q 299 17 383 0 q 147 73 214 33 q 40 179 81 113 q 0 347 0 246 m 196 356 q 209 294 196 324 q 245 241 222 264 q 299 204 268 218 q 365 190 331 190 l 589 190 q 650 204 619 190 q 705 240 681 218 q 744 292 729 263 q 758 351 758 321 q 729 433 758 401 q 658 483 700 465 q 566 506 615 500 q 476 513 517 513 q 388 508 436 513 q 297 487 339 503 q 225 440 254 471 q 196 356 196 408 z "},"K":{"ha":833,"x_min":29,"x_max":792,"o":"m 247 696 q 263 695 251 696 q 275 688 275 694 l 275 451 q 343 524 306 482 q 424 605 381 567 q 519 669 468 643 q 628 696 571 696 q 675 693 654 696 q 714 685 696 690 q 750 672 732 681 q 792 651 768 664 l 792 647 l 792 642 q 783 628 792 639 q 771 615 774 618 q 720 567 756 603 q 644 490 685 531 q 569 413 604 449 q 518 363 533 376 l 518 346 q 569 296 533 332 q 644 219 604 260 q 720 142 685 178 q 771 93 756 106 q 783 80 774 90 q 792 67 792 69 l 792 61 l 792 57 q 750 36 768 44 q 714 23 732 28 q 675 15 696 18 q 628 13 654 13 q 521 39 571 13 q 427 103 471 65 q 347 183 383 142 q 279 257 310 225 q 257 163 271 207 q 216 85 243 118 q 144 32 189 51 q 29 13 99 13 l 29 526 q 48 592 29 561 q 97 647 67 624 q 167 683 128 669 q 247 696 206 696 z "},"k":{"ha":833,"x_min":29,"x_max":792,"o":"m 247 696 q 263 695 251 696 q 275 688 275 694 l 275 451 q 343 524 306 482 q 424 605 381 567 q 519 669 468 643 q 628 696 571 696 q 675 693 654 696 q 714 685 696 690 q 750 672 732 681 q 792 651 768 664 l 792 647 l 792 642 q 783 628 792 639 q 771 615 774 618 q 720 567 756 603 q 644 490 685 531 q 569 413 604 449 q 518 363 533 376 l 518 346 q 569 296 533 332 q 644 219 604 260 q 720 142 685 178 q 771 93 756 106 q 783 80 774 90 q 792 67 792 69 l 792 61 l 792 57 q 750 36 768 44 q 714 23 732 28 q 675 15 696 18 q 628 13 654 13 q 521 39 571 13 q 427 103 471 65 q 347 183 383 142 q 279 257 310 225 q 257 163 271 207 q 216 85 243 118 q 144 32 189 51 q 29 13 99 13 l 29 526 q 48 592 29 561 q 97 647 67 624 q 167 683 128 669 q 247 696 206 696 z "},"L":{"ha":833,"x_min":15,"x_max":807,"o":"m 240 206 l 597 206 q 683 188 644 206 q 749 142 721 171 q 792 76 776 113 q 807 0 807 39 l 206 0 q 133 14 168 0 q 73 51 99 28 q 31 106 47 75 q 15 172 15 138 l 15 499 q 33 579 15 543 q 82 641 51 615 q 153 681 113 667 q 240 694 194 694 l 240 206 z "},"l":{"ha":836,"x_min":15,"x_max":807,"o":"m 240 206 l 597 206 q 683 188 644 206 q 749 142 721 171 q 792 76 776 113 q 807 0 807 39 l 206 0 q 133 14 168 0 q 73 51 99 28 q 31 106 47 75 q 15 172 15 138 l 15 499 q 33 579 15 543 q 82 641 51 615 q 153 681 113 667 q 240 694 194 694 l 240 206 z "},"P":{"ha":972,"x_min":40,"x_max":944,"o":"m 229 654 q 246 661 233 656 q 272 672 258 667 q 296 682 285 678 q 308 686 307 686 l 636 686 q 759 665 703 686 q 857 608 815 643 q 922 527 899 572 q 944 436 944 482 q 919 340 944 386 q 848 258 893 293 q 742 203 803 224 q 611 182 681 182 l 232 182 q 222 113 231 146 q 193 53 214 79 q 135 11 172 26 q 40 -4 99 -4 l 40 585 q 51 619 40 601 q 81 653 63 638 q 122 680 99 669 q 167 692 144 690 q 185 692 174 692 q 206 693 196 692 q 229 694 217 693 l 229 654 m 753 436 q 738 478 753 458 q 701 511 724 497 q 649 533 678 525 q 592 542 621 542 l 317 542 q 296 538 310 542 q 268 528 282 533 q 243 516 254 522 q 232 506 232 510 l 232 329 l 583 329 q 642 337 613 329 q 697 359 672 344 q 738 393 722 374 q 753 436 753 413 z "},"p":{"ha":971,"x_min":40,"x_max":944,"o":"m 229 654 q 246 661 233 656 q 272 672 258 667 q 296 682 285 678 q 308 686 307 686 l 636 686 q 759 665 703 686 q 857 608 815 643 q 922 527 899 572 q 944 436 944 482 q 919 340 944 386 q 848 258 893 293 q 742 203 803 224 q 611 182 681 182 l 232 182 q 222 113 231 146 q 193 53 214 79 q 135 11 172 26 q 40 -4 99 -4 l 40 585 q 51 619 40 601 q 81 653 63 638 q 122 680 99 669 q 167 692 144 690 q 185 692 174 692 q 206 693 196 692 q 229 694 217 693 l 229 654 m 753 436 q 738 478 753 458 q 701 511 724 497 q 649 533 678 525 q 592 542 621 542 l 317 542 q 296 538 310 542 q 268 528 282 533 q 243 516 254 522 q 232 506 232 510 l 232 329 l 583 329 q 642 337 613 329 q 697 359 672 344 q 738 393 722 374 q 753 436 753 413 z "},"Q":{"ha":972,"x_min":40,"x_max":944,"o":"m 756 654 l 756 694 q 779 693 768 693 q 799 692 789 692 q 818 692 810 692 q 863 680 840 690 q 904 653 886 669 q 933 619 922 638 q 944 585 944 601 l 944 -4 q 849 11 886 -4 q 792 53 813 26 q 763 113 771 79 q 753 182 754 146 l 374 182 q 243 203 304 182 q 137 258 182 224 q 66 340 92 293 q 40 436 40 386 q 63 527 40 482 q 128 608 86 572 q 226 665 169 643 q 349 686 282 686 l 676 686 q 689 682 678 686 q 713 672 700 678 q 739 661 726 667 q 756 654 751 656 m 232 436 q 247 393 232 413 q 288 359 263 374 q 342 337 313 344 q 401 329 372 329 l 753 329 l 753 506 q 742 516 753 510 q 717 528 731 522 q 688 538 703 533 q 668 542 674 542 l 393 542 q 335 533 364 542 q 284 511 307 525 q 247 478 261 497 q 232 436 232 458 z "},"q":{"ha":972,"x_min":40,"x_max":944,"o":"m 756 654 l 756 694 q 779 693 768 693 q 799 692 789 692 q 818 692 810 692 q 863 680 840 690 q 904 653 886 669 q 933 619 922 638 q 944 585 944 601 l 944 -4 q 849 11 886 -4 q 792 53 813 26 q 763 113 771 79 q 753 182 754 146 l 374 182 q 243 203 304 182 q 137 258 182 224 q 66 340 92 293 q 40 436 40 386 q 63 527 40 482 q 128 608 86 572 q 226 665 169 643 q 349 686 282 686 l 676 686 q 689 682 678 686 q 713 672 700 678 q 739 661 726 667 q 756 654 751 656 m 232 436 q 247 393 232 413 q 288 359 263 374 q 342 337 313 344 q 401 329 372 329 l 753 329 l 753 506 q 742 516 753 510 q 717 528 731 522 q 688 538 703 533 q 668 542 674 542 l 393 542 q 335 533 364 542 q 284 511 307 525 q 247 478 261 497 q 232 436 232 458 z "},"T":{"ha":972,"x_min":22,"x_max":924,"o":"m 22 497 q 36 574 22 538 q 76 637 50 610 q 139 679 101 664 q 222 694 176 694 l 924 694 q 894 584 924 624 q 815 524 864 544 q 704 499 765 504 q 581 492 643 493 l 581 140 q 559 78 581 104 q 506 34 538 51 q 437 8 474 17 q 369 0 400 0 l 369 497 l 22 497 z "},"t":{"ha":972,"x_min":22,"x_max":924,"o":"m 22 497 q 36 574 22 538 q 76 637 50 610 q 139 679 101 664 q 222 694 176 694 l 924 694 q 894 584 924 624 q 815 524 864 544 q 704 499 765 504 q 581 492 643 493 l 581 140 q 559 78 581 104 q 506 34 538 51 q 437 8 474 17 q 369 0 400 0 l 369 497 l 22 497 z "},"U":{"ha":974,"x_min":47,"x_max":949,"o":"m 233 319 q 265 245 233 272 q 340 205 296 218 q 430 189 383 192 q 507 186 476 186 q 583 191 539 186 q 667 210 628 196 q 735 253 707 225 q 763 329 763 282 l 763 694 q 890 652 844 694 q 949 531 936 610 l 949 421 q 837 101 949 203 q 511 0 725 0 q 415 5 467 0 q 311 22 363 10 q 212 54 260 33 q 128 108 164 75 q 69 186 92 140 q 47 294 47 232 l 47 531 q 63 600 47 569 q 104 651 78 631 q 164 683 131 672 q 233 694 197 694 l 233 319 z "},"u":{"ha":972,"x_min":47,"x_max":949,"o":"m 233 319 q 265 245 233 272 q 340 205 296 218 q 430 189 383 192 q 507 186 476 186 q 583 191 539 186 q 667 210 628 196 q 735 253 707 225 q 763 329 763 282 l 763 694 q 890 652 844 694 q 949 531 936 610 l 949 421 q 837 101 949 203 q 511 0 725 0 q 415 5 467 0 q 311 22 363 10 q 212 54 260 33 q 128 108 164 75 q 69 186 92 140 q 47 294 47 232 l 47 531 q 63 600 47 569 q 104 651 78 631 q 164 683 131 672 q 233 694 197 694 l 233 319 z "},"V":{"ha":972,"x_min":53,"x_max":944,"o":"m 53 651 l 53 661 q 64 678 53 672 q 90 688 75 685 q 119 693 106 692 q 140 694 133 694 q 235 664 193 694 q 303 585 278 633 l 494 219 l 685 585 q 752 664 710 633 q 849 694 794 694 q 872 692 856 694 q 903 686 888 690 q 932 675 919 682 q 944 657 944 668 l 944 651 l 581 0 l 411 0 l 53 651 z "},"v":{"ha":972,"x_min":53,"x_max":944,"o":"m 53 651 l 53 661 q 64 678 53 672 q 90 688 75 685 q 119 693 106 692 q 140 694 133 694 q 235 664 193 694 q 303 585 278 633 l 494 219 l 685 585 q 752 664 710 633 q 849 694 794 694 q 872 692 856 694 q 903 686 888 690 q 932 675 919 682 q 944 657 944 668 l 944 651 l 581 0 l 411 0 l 53 651 z "},"S":{"ha":972,"x_min":65,"x_max":969,"o":"m 671 151 q 694 155 678 151 q 728 165 711 158 q 757 181 744 171 q 769 207 769 192 q 755 231 769 221 q 720 249 740 242 q 681 260 700 256 q 653 264 661 264 l 283 264 q 195 283 235 264 q 126 334 156 303 q 81 406 97 365 q 65 486 65 446 q 88 575 65 536 q 147 640 110 614 q 231 681 183 667 q 326 694 278 694 l 761 694 q 826 681 793 694 q 886 647 860 668 q 929 596 913 625 q 946 533 946 567 l 363 533 q 339 530 353 533 q 313 519 325 526 q 292 503 300 513 q 283 482 283 493 q 290 460 283 469 q 308 447 297 451 q 331 439 319 442 q 354 435 343 436 q 458 437 396 435 q 588 437 519 439 q 725 424 657 435 q 847 387 793 413 q 935 317 901 361 q 969 204 969 274 l 969 147 q 922 72 954 101 q 846 25 889 43 q 753 0 803 7 q 655 -10 704 -7 q 559 -11 606 -12 q 476 -10 513 -10 l 283 -10 q 219 8 253 -4 q 156 41 185 21 q 108 88 126 61 q 89 151 89 115 l 671 151 z "},"s":{"ha":972,"x_min":65,"x_max":969,"o":"m 671 151 q 694 155 678 151 q 728 165 711 158 q 757 181 744 171 q 769 207 769 192 q 755 231 769 221 q 720 249 740 242 q 681 260 700 256 q 653 264 661 264 l 283 264 q 195 283 235 264 q 126 334 156 303 q 81 406 97 365 q 65 486 65 446 q 88 575 65 536 q 147 640 110 614 q 231 681 183 667 q 326 694 278 694 l 761 694 q 826 681 793 694 q 886 647 860 668 q 929 596 913 625 q 946 533 946 567 l 363 533 q 339 530 353 533 q 313 519 325 526 q 292 503 300 513 q 283 482 283 493 q 290 460 283 469 q 308 447 297 451 q 331 439 319 442 q 354 435 343 436 q 458 437 396 435 q 588 437 519 439 q 725 424 657 435 q 847 387 793 413 q 935 317 901 361 q 969 204 969 274 l 969 147 q 922 72 954 101 q 846 25 889 43 q 753 0 803 7 q 655 -10 704 -7 q 559 -11 606 -12 q 476 -10 513 -10 l 283 -10 q 219 8 253 -4 q 156 41 185 21 q 108 88 126 61 q 89 151 89 115 l 671 151 z "},"M":{"ha":1668,"x_min":64,"x_max":1592,"o":"m 1165 497 q 1103 496 1143 497 q 1024 485 1064 494 q 955 453 985 475 q 924 393 925 432 l 910 138 q 892 76 908 101 q 849 33 875 50 q 793 9 824 17 q 736 1 763 1 l 736 400 q 704 459 736 438 q 631 490 672 481 q 547 502 589 500 q 486 504 506 504 q 413 501 456 504 q 331 486 369 499 q 265 447 292 474 q 238 372 238 421 l 238 1 q 180 11 210 1 q 124 39 150 21 q 81 84 97 57 q 64 144 64 111 l 64 436 q 97 543 64 496 q 180 624 131 590 q 286 674 229 657 q 392 692 343 692 l 575 693 q 633 685 603 693 q 693 667 664 678 q 749 640 722 656 q 796 611 775 625 l 819 586 q 863 615 840 599 q 923 647 885 632 q 1021 674 961 663 q 1175 685 1081 685 l 1278 685 q 1425 634 1365 672 q 1522 538 1485 596 q 1575 403 1558 479 q 1592 242 1592 328 l 1592 144 q 1572 81 1588 108 q 1532 34 1556 53 q 1478 6 1508 15 q 1418 -4 1449 -4 l 1418 379 q 1388 446 1418 422 q 1315 481 1357 469 q 1231 495 1274 493 q 1165 497 1189 497 z "},"m":{"ha":1668,"x_min":64,"x_max":1592,"o":"m 1165 497 q 1103 496 1143 497 q 1024 485 1064 494 q 955 453 985 475 q 924 393 925 432 l 910 138 q 892 76 908 101 q 849 33 875 50 q 793 9 824 17 q 736 1 763 1 l 736 400 q 704 459 736 438 q 631 490 672 481 q 547 502 589 500 q 486 504 506 504 q 413 501 456 504 q 331 486 369 499 q 265 447 292 474 q 238 372 238 421 l 238 1 q 180 11 210 1 q 124 39 150 21 q 81 84 97 57 q 64 144 64 111 l 64 436 q 97 543 64 496 q 180 624 131 590 q 286 674 229 657 q 392 692 343 692 l 575 693 q 633 685 603 693 q 693 667 664 678 q 749 640 722 656 q 796 611 775 625 l 819 586 q 863 615 840 599 q 923 647 885 632 q 1021 674 961 663 q 1175 685 1081 685 l 1278 685 q 1425 634 1365 672 q 1522 538 1485 596 q 1575 403 1558 479 q 1592 242 1592 328 l 1592 144 q 1572 81 1588 108 q 1532 34 1556 53 q 1478 6 1508 15 q 1418 -4 1449 -4 l 1418 379 q 1388 446 1418 422 q 1315 481 1357 469 q 1231 495 1274 493 q 1165 497 1189 497 z "},"W":{"ha":1665,"x_min":64,"x_max":1592,"o":"m 1165 192 q 1231 194 1189 192 q 1315 208 1274 196 q 1388 243 1357 219 q 1418 310 1418 267 l 1418 693 q 1478 683 1449 693 q 1532 655 1508 674 q 1572 608 1556 636 q 1592 544 1588 581 l 1592 447 q 1575 285 1592 361 q 1522 151 1558 210 q 1425 55 1485 93 q 1278 4 1365 17 l 1175 4 q 1021 15 1081 4 q 923 42 961 26 q 863 74 885 57 q 819 103 840 90 l 796 78 q 749 48 775 63 q 693 22 722 33 q 633 3 664 11 q 575 -4 603 -4 l 392 -3 q 286 15 343 -3 q 180 65 229 32 q 97 146 131 99 q 64 253 64 193 l 64 544 q 81 605 64 578 q 124 650 97 632 q 180 678 150 668 q 238 688 210 688 l 238 317 q 265 242 238 268 q 331 203 292 215 q 413 188 369 190 q 486 185 456 185 q 547 187 506 185 q 631 199 589 189 q 704 230 672 208 q 736 289 736 251 l 736 688 q 793 679 763 688 q 849 654 824 671 q 892 612 875 638 q 910 551 908 586 l 924 296 q 955 235 925 257 q 1024 204 985 214 q 1103 193 1064 194 q 1165 192 1143 192 z "},"w":{"ha":1665,"x_min":64,"x_max":1592,"o":"m 1165 192 q 1231 194 1189 192 q 1315 208 1274 196 q 1388 243 1357 219 q 1418 310 1418 267 l 1418 693 q 1478 683 1449 693 q 1532 655 1508 674 q 1572 608 1556 636 q 1592 544 1588 581 l 1592 447 q 1575 285 1592 361 q 1522 151 1558 210 q 1425 55 1485 93 q 1278 4 1365 17 l 1175 4 q 1021 15 1081 4 q 923 42 961 26 q 863 74 885 57 q 819 103 840 90 l 796 78 q 749 48 775 63 q 693 22 722 33 q 633 3 664 11 q 575 -4 603 -4 l 392 -3 q 286 15 343 -3 q 180 65 229 32 q 97 146 131 99 q 64 253 64 193 l 64 544 q 81 605 64 578 q 124 650 97 632 q 180 678 150 668 q 238 688 210 688 l 238 317 q 265 242 238 268 q 331 203 292 215 q 413 188 369 190 q 486 185 456 185 q 547 187 506 185 q 631 199 589 189 q 704 230 672 208 q 736 289 736 251 l 736 688 q 793 679 763 688 q 849 654 824 671 q 892 612 875 638 q 910 551 908 586 l 924 296 q 955 235 925 257 q 1024 204 985 214 q 1103 193 1064 194 q 1165 192 1143 192 z "},"N":{"ha":974,"x_min":47,"x_max":949,"o":"m 233 0 q 164 10 197 0 q 104 42 131 21 q 63 93 78 63 q 47 164 47 124 l 47 400 q 69 508 47 463 q 128 587 92 554 q 212 640 164 619 q 311 673 260 661 q 415 690 363 685 q 511 694 467 694 q 837 593 725 694 q 949 274 949 492 l 949 164 q 890 42 936 85 q 763 0 844 0 l 763 365 q 735 441 763 413 q 667 484 707 469 q 583 503 628 499 q 507 508 539 508 q 430 506 476 508 q 340 490 383 503 q 265 449 296 476 q 233 375 233 422 l 233 0 z "},"n":{"ha":972,"x_min":47,"x_max":949,"o":"m 233 0 q 164 10 197 0 q 104 42 131 21 q 63 93 78 63 q 47 164 47 124 l 47 400 q 69 508 47 463 q 128 587 92 554 q 212 640 164 619 q 311 673 260 661 q 415 690 363 685 q 511 694 467 694 q 837 593 725 694 q 949 274 949 492 l 949 164 q 890 42 936 85 q 763 0 844 0 l 763 365 q 735 441 763 413 q 667 484 707 469 q 583 503 628 499 q 507 508 539 508 q 430 506 476 508 q 340 490 383 503 q 265 449 296 476 q 233 375 233 422 l 233 0 z "},"Z":{"ha":972,"x_min":21,"x_max":932,"o":"m 500 501 l 242 501 q 167 522 199 501 q 116 573 136 543 q 86 636 96 603 q 76 694 76 669 l 932 694 q 924 674 932 685 q 911 660 915 664 q 865 609 896 643 q 794 532 833 575 q 710 442 754 489 q 627 351 667 394 q 556 274 588 308 q 510 224 525 239 l 500 201 l 932 201 l 932 0 l 21 0 l 500 501 z "},"z":{"ha":972,"x_min":21,"x_max":932,"o":"m 500 501 l 242 501 q 167 522 199 501 q 116 573 136 543 q 86 636 96 603 q 76 694 76 669 l 932 694 q 924 674 932 685 q 911 660 915 664 q 865 609 896 643 q 794 532 833 575 q 710 442 754 489 q 627 351 667 394 q 556 274 588 308 q 510 224 525 239 l 500 201 l 932 201 l 932 0 l 21 0 l 500 501 z "},"Y":{"ha":971,"x_min":33,"x_max":939,"o":"m 389 203 q 278 221 340 206 q 163 267 217 236 q 71 348 108 299 q 33 468 33 397 l 33 697 q 124 674 90 697 q 178 615 157 650 q 213 539 199 581 q 244 463 226 497 q 292 404 263 428 q 372 381 321 381 l 600 381 q 681 404 651 381 q 728 463 710 428 q 760 539 746 497 q 794 615 774 581 q 848 674 815 650 q 939 697 881 697 l 939 468 q 901 348 939 397 q 809 267 864 299 q 693 221 754 236 q 585 203 632 206 q 560 116 572 154 q 526 51 547 78 q 473 10 506 25 q 389 -4 440 -4 l 389 203 l 389 203 z "},"¶":{"ha":1157,"x_min":0,"x_max":0,"o":""},"y":{"ha":971,"x_min":33,"x_max":939,"o":"m 389 203 q 278 221 340 206 q 163 267 217 236 q 71 348 108 299 q 33 468 33 397 l 33 697 q 124 674 90 697 q 178 615 157 650 q 213 539 199 581 q 244 463 226 497 q 292 404 263 428 q 372 381 321 381 l 600 381 q 681 404 651 381 q 728 463 710 428 q 760 539 746 497 q 794 615 774 581 q 848 674 815 650 q 939 697 881 697 l 939 468 q 901 348 939 397 q 809 267 864 299 q 693 221 754 236 q 585 203 632 206 q 560 116 572 154 q 526 51 547 78 q 473 10 506 25 q 389 -4 440 -4 l 389 203 l 389 203 z "},"X":{"ha":972,"x_min":33,"x_max":935,"o":"m 499 226 q 449 210 472 226 q 402 172 425 194 q 356 121 379 149 q 305 70 332 93 q 247 31 278 47 q 176 15 215 15 q 143 18 167 15 q 95 26 119 21 q 52 41 71 32 q 33 61 33 50 l 36 67 q 43 76 39 72 l 317 340 l 317 347 q 237 394 282 368 q 151 449 192 419 q 81 514 110 479 q 53 589 53 549 q 55 613 53 596 q 63 649 57 631 q 80 681 69 667 q 107 694 90 694 l 113 694 q 117 693 114 694 q 124 690 121 692 l 132 688 l 465 483 q 575 586 521 540 q 622 624 597 606 q 671 658 647 643 q 717 683 694 674 q 758 694 739 693 l 808 694 q 836 693 815 694 q 878 688 857 692 q 917 676 900 683 q 935 657 935 668 l 935 650 l 651 378 l 651 374 q 672 331 651 351 q 725 292 693 311 q 793 253 757 274 q 861 211 829 233 q 914 162 893 189 q 935 101 935 135 q 919 52 935 76 q 886 8 904 28 q 882 5 883 6 q 879 3 881 4 l 876 0 l 522 218 q 514 222 518 219 q 508 225 511 224 q 503 226 506 226 l 499 226 l 499 226 z "},"x":{"ha":972,"x_min":33,"x_max":935,"o":"m 499 226 q 449 210 472 226 q 402 172 425 194 q 356 121 379 149 q 305 70 332 93 q 247 31 278 47 q 176 15 215 15 q 143 18 167 15 q 95 26 119 21 q 52 41 71 32 q 33 61 33 50 l 36 67 q 43 76 39 72 l 317 340 l 317 347 q 237 394 282 368 q 151 449 192 419 q 81 514 110 479 q 53 589 53 549 q 55 613 53 596 q 63 649 57 631 q 80 681 69 667 q 107 694 90 694 l 113 694 q 117 693 114 694 q 124 690 121 692 l 132 688 l 465 483 q 575 586 521 540 q 622 624 597 606 q 671 658 647 643 q 717 683 694 674 q 758 694 739 693 l 808 694 q 836 693 815 694 q 878 688 857 692 q 917 676 900 683 q 935 657 935 668 l 935 650 l 651 378 l 651 374 q 672 331 651 351 q 725 292 693 311 q 793 253 757 274 q 861 211 829 233 q 914 162 893 189 q 935 101 935 135 q 919 52 935 76 q 886 8 904 28 q 882 5 883 6 q 879 3 881 4 l 876 0 l 522 218 q 514 222 518 219 q 508 225 511 224 q 503 226 506 226 l 499 226 l 499 226 z "}}}
